<svg width="219" height="80" viewBox="0 0 219 80" fill="none" xmlns="http://www.w3.org/2000/svg">
<path d="M59.6691 53H56.7891C56.2611 53 55.8291 52.568 55.8291 52.04V24.2H51.9891C51.4611 24.2 51.0291 23.768 51.0291 23.24V20.36C51.0291 19.832 51.4611 19.4 51.9891 19.4C54.5331 19.4 57.1251 19.4 59.6691 19.4C60.1971 19.4 60.6291 19.832 60.6291 20.36V33.8H64.4691C64.9971 33.8 65.4291 34.232 65.4291 34.76V37.64C65.4291 38.168 64.9971 38.6 64.4691 38.6H60.6291V52.04C60.6291 52.568 60.1971 53 59.6691 53ZM75.9891 48.2H78.8691C79.3971 48.2 79.8291 48.632 79.8291 49.16V52.04C79.8291 52.568 79.3971 53 78.8691 53H75.9891C75.4611 53 75.0291 52.568 75.0291 52.04V49.16C75.0291 48.632 75.4611 48.2 75.9891 48.2ZM71.1891 43.4H74.0691C74.5971 43.4 75.0291 43.832 75.0291 44.36V47.24C75.0291 47.768 74.5971 48.2 74.0691 48.2H71.1891C70.6611 48.2 70.2291 47.768 70.2291 47.24V44.36C70.2291 43.832 70.6611 43.4 71.1891 43.4ZM66.3891 38.6H69.2691C69.7971 38.6 70.2291 39.032 70.2291 39.56V42.44C70.2291 42.968 69.7971 43.4 69.2691 43.4H66.3891C65.8611 43.4 65.4291 42.968 65.4291 42.44V39.56C65.4291 39.032 65.8611 38.6 66.3891 38.6ZM78.8691 24.2H75.9891C75.4611 24.2 75.0291 23.768 75.0291 23.24V20.36C75.0291 19.832 75.4611 19.4 75.9891 19.4H78.8691C79.3971 19.4 79.8291 19.832 79.8291 20.36V23.24C79.8291 23.768 79.3971 24.2 78.8691 24.2ZM74.0691 29H71.1891C70.6611 29 70.2291 28.568 70.2291 28.04V25.16C70.2291 24.632 70.6611 24.2 71.1891 24.2H74.0691C74.5971 24.2 75.0291 24.632 75.0291 25.16V28.04C75.0291 28.568 74.5971 29 74.0691 29ZM69.2691 33.8H66.3891C65.8611 33.8 65.4291 33.368 65.4291 32.84V29.96C65.4291 29.432 65.8611 29 66.3891 29H69.2691C69.7971 29 70.2291 29.432 70.2291 29.96V32.84C70.2291 33.368 69.7971 33.8 69.2691 33.8ZM86.5 48.152H83.62C83.092 48.152 82.66 47.72 82.66 47.192V29.912C82.66 29.384 83.092 28.952 83.62 28.952H86.5C87.028 28.952 87.46 29.384 87.46 29.912V47.192C87.46 47.72 87.028 48.152 86.5 48.152ZM105.7 48.152H102.82C102.292 48.152 101.86 47.72 101.86 47.192V29.912C101.86 29.384 102.292 28.952 102.82 28.952H105.7C106.228 28.952 106.66 29.384 106.66 29.912V47.192C106.66 47.72 106.228 48.152 105.7 48.152ZM88.42 48.152H100.9C101.428 48.152 101.86 48.584 101.86 49.112V51.992C101.86 52.52 101.428 52.952 100.9 52.952H88.42C87.892 52.952 87.46 52.52 87.46 51.992V49.112C87.46 48.584 87.892 48.152 88.42 48.152ZM88.42 24.152H100.9C101.428 24.152 101.86 24.584 101.86 25.112V27.992C101.86 28.52 101.428 28.952 100.9 28.952H88.42C87.892 28.952 87.46 28.52 87.46 27.992V25.112C87.46 24.584 87.892 24.152 88.42 24.152ZM114.812 48.152H111.933C111.405 48.152 110.973 47.72 110.973 47.192V29.912C110.973 29.384 111.405 28.952 111.933 28.952H114.812C115.341 28.952 115.773 29.384 115.773 29.912V47.192C115.773 47.72 115.341 48.152 114.812 48.152ZM134.013 48.152H131.133C130.605 48.152 130.173 47.72 130.173 47.192V29.912C130.173 29.384 130.605 28.952 131.133 28.952H134.013C134.541 28.952 134.973 29.384 134.973 29.912V47.192C134.973 47.72 134.541 48.152 134.013 48.152ZM116.733 48.152H129.213C129.741 48.152 130.173 48.584 130.173 49.112V51.992C130.173 52.52 129.741 52.952 129.213 52.952H116.733C116.205 52.952 115.773 52.52 115.773 51.992V49.112C115.773 48.584 116.205 48.152 116.733 48.152ZM116.733 24.152H129.213C129.741 24.152 130.173 24.584 130.173 25.112V27.992C130.173 28.52 129.741 28.952 129.213 28.952H116.733C116.205 28.952 115.773 28.52 115.773 27.992V25.112C115.773 24.584 116.205 24.152 116.733 24.152ZM139.189 24.44H156.037C156.517 24.44 156.949 24.872 156.949 25.4V28.184C156.949 28.712 156.517 29.144 156.037 29.144H139.189C138.661 29.144 138.229 28.712 138.229 28.184V25.4C138.229 24.872 138.661 24.44 139.189 24.44ZM142.933 47.864V44.12C142.933 43.592 143.317 43.16 143.845 43.16H146.677C147.157 43.16 147.589 43.592 147.589 44.12V47.864H160.693C161.221 47.864 161.653 48.296 161.653 48.824V51.608C161.653 52.136 161.221 52.568 160.693 52.568H139.189C138.661 52.568 138.229 52.136 138.229 51.608V48.824C138.229 48.296 138.661 47.864 139.189 47.864H142.933ZM148.549 38.504H151.333C151.861 38.504 152.293 38.936 152.293 39.416V42.248C152.293 42.776 151.861 43.208 151.333 43.208H148.549C148.021 43.208 147.589 42.776 147.589 42.248V39.416C147.589 38.936 148.021 38.504 148.549 38.504ZM153.205 33.8H156.037C156.517 33.8 156.949 34.232 156.949 34.76V37.544C156.949 38.072 156.517 38.504 156.037 38.504H153.205C152.677 38.504 152.293 38.072 152.293 37.544V34.76C152.293 34.232 152.677 33.8 153.205 33.8ZM157.909 29.144H160.693C161.221 29.144 161.653 29.576 161.653 30.056V32.888C161.653 33.416 161.221 33.8 160.693 33.8H157.909C157.381 33.8 156.949 33.416 156.949 32.888V30.056C156.949 29.576 157.381 29.144 157.909 29.144ZM169.047 48.152H166.167C165.639 48.152 165.207 47.72 165.207 47.192V29.912C165.207 29.384 165.639 28.952 166.167 28.952H169.047C169.575 28.952 170.007 29.384 170.007 29.912V33.752H183.447C183.975 33.752 184.407 34.184 184.407 34.712V37.592C184.407 38.12 183.975 38.552 183.447 38.552H170.007V47.192C170.007 47.72 169.575 48.152 169.047 48.152ZM188.247 48.152H185.367C184.839 48.152 184.407 47.72 184.407 47.192V44.312C184.407 43.784 184.839 43.352 185.367 43.352H188.247C188.775 43.352 189.207 43.784 189.207 44.312V47.192C189.207 47.72 188.775 48.152 188.247 48.152ZM188.247 33.752H185.367C184.839 33.752 184.407 33.32 184.407 32.792V29.912C184.407 29.384 184.839 28.952 185.367 28.952H188.247C188.775 28.952 189.207 29.384 189.207 29.912V32.792C189.207 33.32 188.775 33.752 188.247 33.752ZM170.967 48.152H183.447C183.975 48.152 184.407 48.584 184.407 49.112V51.992C184.407 52.52 183.975 52.952 183.447 52.952H170.967C170.439 52.952 170.007 52.52 170.007 51.992V49.112C170.007 48.584 170.439 48.152 170.967 48.152ZM170.967 24.152H183.447C183.975 24.152 184.407 24.584 184.407 25.112V27.992C184.407 28.52 183.975 28.952 183.447 28.952H170.967C170.439 28.952 170.007 28.52 170.007 27.992V25.112C170.007 24.584 170.439 24.152 170.967 24.152ZM196.797 48.152H193.917C193.389 48.152 192.957 47.72 192.957 47.192V29.912C192.957 29.384 193.389 28.952 193.917 28.952H196.797C197.325 28.952 197.757 29.384 197.757 29.912V33.752H211.197C211.725 33.752 212.157 34.184 212.157 34.712V37.592C212.157 38.12 211.725 38.552 211.197 38.552H197.757V47.192C197.757 47.72 197.325 48.152 196.797 48.152ZM215.997 48.152H213.117C212.589 48.152 212.157 47.72 212.157 47.192V44.312C212.157 43.784 212.589 43.352 213.117 43.352H215.997C216.525 43.352 216.957 43.784 216.957 44.312V47.192C216.957 47.72 216.525 48.152 215.997 48.152ZM215.997 33.752H213.117C212.589 33.752 212.157 33.32 212.157 32.792V29.912C212.157 29.384 212.589 28.952 213.117 28.952H215.997C216.525 28.952 216.957 29.384 216.957 29.912V32.792C216.957 33.32 216.525 33.752 215.997 33.752ZM198.717 48.152H211.197C211.725 48.152 212.157 48.584 212.157 49.112V51.992C212.157 52.52 211.725 52.952 211.197 52.952H198.717C198.189 52.952 197.757 52.52 197.757 51.992V49.112C197.757 48.584 198.189 48.152 198.717 48.152ZM198.717 24.152H211.197C211.725 24.152 212.157 24.584 212.157 25.112V27.992C212.157 28.52 211.725 28.952 211.197 28.952H198.717C198.189 28.952 197.757 28.52 197.757 27.992V25.112C197.757 24.584 198.189 24.152 198.717 24.152Z" fill="#2D2D2D"/>
<path d="M21.5511 13.2727L6.55114 69H1.64205L16.642 13.2727H21.5511ZM44.3636 13.2727L29.3636 69H24.4545L39.4545 13.2727H44.3636Z" fill="black"/>
<path d="M78.25 73H75.75H73.25H70.75H68.25H65.75V70.5H63.25V68V65.5V63V60.5H65.75H68.25V63V65.5V68V70.5H70.75V68V65.5V63H73.25H75.75V65.5V68V70.5H78.25V68V65.5V63V60.5H80.75H83.25V63V65.5V68V70.5H80.75V73H78.25ZM95.75 70.5H98.25V73H95.75H93.25H90.75H88.25V70.5H85.75V68V65.5V63H88.25V60.5H90.75H93.25H95.75H98.25V63H100.75V65.5H98.25V68H95.75H93.25H90.75V70.5H93.25H95.75ZM93.25 65.5H95.75V63H93.25H90.75V65.5H93.25ZM113.25 73H110.75H108.25H105.75H103.25V70.5V68V65.5V63V60.5V58H105.75H108.25V60.5H110.75H113.25H115.75V63H118.25V65.5V68V70.5H115.75V73H113.25ZM110.75 70.5H113.25V68V65.5V63H110.75H108.25V65.5V68V70.5H110.75ZM133.25 73H135.75V75.5H133.25H130.75H128.25H125.75H123.25H120.75V73H123.25H125.75H128.25H130.75H133.25ZM150.75 73H148.25H145.75H143.25H140.75V70.5H138.25V68V65.5V63H140.75V60.5H143.25H145.75H148.25V58H150.75H153.25V60.5V63V65.5V68V70.5V73H150.75ZM145.75 70.5H148.25V68V65.5V63H145.75H143.25V65.5V68V70.5H145.75ZM165.75 70.5H168.25V73H165.75H163.25H160.75H158.25V70.5H155.75V68V65.5V63H158.25V60.5H160.75H163.25H165.75H168.25V63H170.75V65.5H168.25V68H165.75H163.25H160.75V70.5H163.25H165.75ZM163.25 65.5H165.75V63H163.25H160.75V65.5H163.25ZM180.75 73H178.25V70.5H175.75V68H173.25V65.5V63V60.5H175.75H178.25V63V65.5V68H180.75H183.25V65.5V63V60.5H185.75H188.25V63V65.5V68H185.75V70.5H183.25V73H180.75Z" fill="#0004FF"/>
</svg>
